<?xml version="1.0" encoding="utf-8"?>
<!-- Generator: Adobe Illustrator 18.1.1, SVG Export Plug-In . SVG Version: 6.00 Build 0)  -->
<svg version="1.1" id="Layer_1" xmlns="http://www.w3.org/2000/svg" xmlns:xlink="http://www.w3.org/1999/xlink" x="0px" y="0px"
	 viewBox="0 0 250 50" enable-background="new 0 0 250 50" xml:space="preserve">
<g>
	<g>
		<polygon fill-rule="evenodd" clip-rule="evenodd" fill="#FFFFFF" points="10.3,28.1 17,28.1 17,25.6 7.9,25.6 7.8,25.6 7.8,34.6 
			10.3,34.6 10.3,28.2 10.3,28.1 		"/>
		<path fill-rule="evenodd" clip-rule="evenodd" fill="#FFFFFF" d="M7.8,16.9l18.2,0l0,0c3.9,0,7.1,3.2,7.1,7.2
			c0,3.9-3.2,7.1-7.1,7.2l-0.1,0l-4.5,0v-9h2.5v6.6l0.2,0H26l0.1,0c2.5-0.1,4.6-2.1,4.6-4.7c0-2.6-2.1-4.6-4.6-4.7l-15.8,0l-0.1,0
			v2.7l0,0l6.7,0l0,2.5l-9.1,0l0,0L7.8,16.9L7.8,16.9z"/>
		<polygon fill-rule="evenodd" clip-rule="evenodd" fill="#FFFFFF" points="44.4,13.6 55.4,32.1 57,29.5 47.2,13.6 44.4,13.6 		"/>
		<polygon fill-rule="evenodd" clip-rule="evenodd" fill="#FFFFFF" points="33.1,34.6 44.4,15.8 53.7,31.2 40.8,31.2 40.8,28.8 
			49.2,28.8 44.4,20.7 36.5,34.6 33.1,34.6 		"/>
		<polygon fill-rule="evenodd" clip-rule="evenodd" fill="#FFFFFF" points="55.4,32.1 40.8,32.1 40.8,34.6 54,34.6 54,34.5 
			55.4,32.1 		"/>
		<path fill-rule="evenodd" clip-rule="evenodd" fill="#FFFFFF" d="M18,32.1l0-10h2.5v10l0,0H26l0.1,0c4.5,0,8.1-3.6,8.1-8.1
			c0-4.4-3.6-8.1-8-8.1l-0.1,0l-19.1,0l0,18.7H4.5l0-21.1l21.5,0h0.1c5.1,0,9.4,3.6,10.3,8.5l5.1-8.4h2.8l-8.8,14.7l-0.9,1.4
			c-1.9,2.8-5,4.8-8.6,4.9l-0.1,0h-8V32.1L18,32.1z"/>
	</g>
	
		<line fill="none" stroke="#FFFFFF" stroke-width="1.0469" stroke-linecap="round" stroke-linejoin="round" stroke-miterlimit="10" x1="63" y1="40.5" x2="63" y2="8.2"/>
	<path fill="#FFCB4B" d="M86.9,25.8v7.5c0,1.1-0.9,2-2,2c-1,0-1.8-0.7-2-1.6c-1.5,1-3.2,1.6-5.1,1.6c-2.6,0-4.9-1.1-6.5-2.8
		c-1.6-1.8-2.6-4.1-2.6-6.7c0-2.6,1-5,2.6-6.7c1.6-1.8,3.9-2.9,6.5-2.9c1.9,0,3.6,0.7,5.1,1.7c0.2-1,1-1.7,2-1.7c1.1,0,2,0.9,2,2.1
		V25.8z M82.8,25.8c0-1.6-0.6-3-1.5-3.9c-0.9-1-2.2-1.6-3.6-1.6c-1.4,0-2.7,0.5-3.6,1.6c-0.9,1-1.5,2.3-1.5,3.9
		c0,1.6,0.5,2.9,1.5,3.9c0.9,1,2.2,1.5,3.6,1.5c1.3,0,2.6-0.5,3.6-1.5C82.2,28.7,82.8,27.3,82.8,25.8z"/>
	<path fill="#FFCB4B" d="M106.3,24.1v9.2c0,1.1-0.9,2-2,2c-1.1,0-2-0.9-2-2v-9.2c0-2.1-1.8-3.9-4-3.9c-2.1,0-3.8,1.7-3.8,3.9v9.2
		c0,0.1,0,0.2-0.1,0.4c-0.2,0.9-1,1.6-2,1.6c-1.1,0-2-0.9-2-2v-9.2v-5.9c0-1.1,0.9-2,2-2c0.8,0,1.5,0.5,1.9,1.2
		c1.1-0.7,2.6-1.2,4.1-1.2C102.8,16.2,106.3,19.8,106.3,24.1z"/>
	<path fill="#FFCB4B" d="M125.2,18.2v9v5.4c0,5.1-4.1,9.2-9.2,9.2c-1.4,0-2.8-0.4-3.9-1c-1.1-0.5-1.5-1.6-1-2.7
		c0.5-0.9,1.8-1.3,2.7-0.8c0.7,0.3,1.5,0.5,2.2,0.5c2.3,0,4.2-1.5,4.8-3.5c-1.1,0.6-2.4,0.9-3.6,0.9c-4.4,0-8-3.6-8-8v-9
		c0-1.1,1-2,2-2c1.2,0,2,0.9,2,2v9c0,2.2,1.8,3.9,4,3.9c2.2,0,3.9-1.7,3.9-3.9v-9c0-1.1,0.8-2,2-2C124.2,16.2,125.2,17,125.2,18.2z"
		/>
	<path fill="#FFFFFF" d="M152.8,19.2l-6.3,14.9c0,0.1-0.1,0.2-0.2,0.3c0,0,0,0,0,0c0,0.1-0.1,0.2-0.2,0.2c0,0-0.1,0-0.1,0
		c-0.1,0.1-0.2,0.2-0.2,0.2c0,0,0,0,0,0.1c-0.1,0.1-0.2,0.2-0.3,0.2c0,0,0,0,0,0c-0.1,0-0.2,0-0.3,0.1c0,0,0,0-0.1,0
		c-0.1,0-0.2,0-0.4,0c-0.1,0-0.2,0-0.3,0c0,0,0,0-0.1,0c-0.1,0-0.2-0.1-0.3-0.1c0,0,0,0,0,0c0,0,0,0,0,0c-0.1,0-0.2-0.1-0.3-0.2
		c0,0,0,0,0,0c-0.1,0-0.2-0.1-0.2-0.2c0,0-0.1,0-0.1,0c-0.1-0.1-0.2-0.2-0.2-0.2c0,0,0,0,0,0c-0.1-0.1-0.1-0.2-0.2-0.3l-2.8-6.6
		l-2.7,6.6c0,0.1-0.1,0.2-0.2,0.3v0c-0.1,0.1-0.2,0.2-0.2,0.2c0,0,0,0,0,0c-0.1,0.1-0.2,0.2-0.2,0.2c-0.2,0.1-0.2,0.2-0.3,0.2h-0.1
		c0,0,0,0,0,0c-0.1,0-0.2,0-0.2,0.1c-0.1,0-0.1,0-0.1,0c-0.2,0-0.3,0-0.4,0c-0.2,0-0.3,0-0.4,0c0,0,0,0-0.1,0
		c-0.1,0-0.2-0.1-0.2-0.1c0,0,0,0-0.1,0c-0.1,0-0.3-0.1-0.3-0.2c0,0,0,0,0,0c0,0-0.1-0.1-0.2-0.2c0,0,0,0-0.1,0
		c0-0.1-0.1-0.2-0.2-0.2c0,0,0,0,0,0c-0.1-0.1-0.1-0.2-0.2-0.3l-6.3-14.9c-0.5-1,0-2.2,1.1-2.6c0.9-0.4,2.1,0,2.5,1.1l4.5,10.3
		l2.7-6.4c0.3-0.8,1.1-1.2,1.9-1.2c0.8,0,1.6,0.5,1.9,1.2l2.7,6.4l4.5-10.3c0.4-1.1,1.6-1.6,2.6-1.1C152.8,17,153.3,18.2,152.8,19.2
		z"/>
	<path fill="#FFFFFF" d="M159.2,33.2c0,1.2-1,2.1-2.1,2.1c-1,0-1.8-0.7-2-1.6c0-0.2-0.1-0.3-0.1-0.5V10.6c0-1.2,1-2.1,2.1-2.1
		c1.2,0,2.1,0.9,2.1,2.1v6.7c1.2-0.7,2.6-1.1,4.1-1.1c4.6,0,8.4,3.8,8.4,8.4v8.7c0,1.2-0.9,2.1-2.1,2.1c-1.2,0-2.1-0.9-2.1-2.1v-8.7
		c0-2.3-1.8-4.1-4.1-4.1c-2.3,0-4.1,1.9-4.1,4.1V33.2z"/>
	<path fill="#FFFFFF" d="M174.5,25.7c0-5.2,4.1-9.6,9.3-9.6c5,0,8.9,3.7,9.2,8.9c0,0,0,0.1,0,0.2s0,0.3,0,0.3
		c-0.1,0.9-0.9,1.5-2,1.5h-12.2c0.2,0.9,0.6,1.9,1.3,2.5c0.8,0.9,2.3,1.6,3.7,1.7c1.4,0.1,3-0.2,4-1c0.8-0.8,2.4-0.7,2.9-0.1
		c0.5,0.5,0.9,1.7,0,2.5c-1.9,1.7-4.1,2.5-6.9,2.5C178.6,35.3,174.6,30.9,174.5,25.7z M178.7,23.9h10.8c-0.4-1.5-2.3-3.8-5.7-4.1
		C180.6,20,179,22.3,178.7,23.9z"/>
	<path fill="#FFFFFF" d="M233.7,28.2l1.1,1.5c0.1,0.1,0.2,0.1,0.3,0.1l0,0c0.1,0,0.2,0,0.3-0.1l1.1-1.1c0.1-0.1,0.1-0.2,0.1-0.3
		l-0.6-2.2l2.9-2.9L242,29c0,0.1,0.1,0.2,0.2,0.2c0,0,0,0,0.1,0c0.1,0,0.2,0,0.2-0.1L244,28c0.1-0.1,0.2-0.2,0.1-0.4l-1.8-7.8
		l1.8-1.8c0.6-0.6,1-1.2,1.2-1.9c0.2-0.7,0.2-1.3-0.1-1.7c-0.4-0.3-0.9-0.4-1.7-0.1c-0.7,0.2-1.4,0.6-1.9,1.2l-1.8,1.8l-7.5-1.8
		c-0.1,0-0.2,0-0.3,0.1l-1.4,1.4c-0.1,0.1-0.1,0.2-0.1,0.3c0,0.1,0.1,0.2,0.2,0.3l5.4,3l-3,3l-1.8-0.5c0,0,0,0-0.1,0
		c-0.1,0-0.2,0-0.3,0.1l-1.1,1.1c-0.1,0.1-0.1,0.2-0.1,0.3c0,0.1,0.1,0.2,0.1,0.3l1.1,0.9l-2.7,2.7c-1,1.2-5.3,3.7-10.4,3.1
		c-1.3-0.2-2.9-0.8-3.7-1.7c-0.7-0.7-1.1-1.6-1.3-2.5h12.2c1.1,0,1.9-0.6,2-1.5c0-0.3,0-0.3,0-0.3s0-0.2,0-0.2
		c-0.3-5.2-4.3-8.9-9.2-8.9c-5.2,0-9.3,4.4-9.3,9.6c0,5.2,4.1,9.2,9.3,9.6c8,0.6,11.4-3,13.3-4.7 M218,19.8c3.3,0.3,5.3,2.5,5.7,4.1
		h-10.8C213.1,22.3,214.8,20,218,19.8z"/>
	<path fill="#FFFFFF" d="M208.6,19.5c-0.1-0.2-0.2-0.3-0.3-0.4l0,0c-1.5-1.7-3.6-2.8-6-2.8c-1.5,0-2.9,0.9-4.1,1.6
		c0-0.9-1.1-1.6-1.9-1.6c-1.1,0-2,0.9-2,2v5.9v9.2c0,1.1,0.9,2,2,2c1,0,1.8-0.7,2-1.6c0.1-0.2,0.1-0.3,0.1-0.4v-9.2
		c0-2.1,1.7-3.9,3.8-3.9c1.3,0,2.4,0.6,3.1,1.5l0,0c0,0,0,0,0,0c0,0,0,0,0,0l0,0c0.8,0.8,2.1,0.8,2.9,0
		C208.9,21.2,209,20.2,208.6,19.5z"/>
</g>
</svg>
